<svg width="1920" height="1260" viewBox="0 0 1920 1260" fill="none" xmlns="http://www.w3.org/2000/svg">
<g clip-path="url(#clip0_316_510)">
<path d="M45 789C44.2 789 15 799.333 0.5 804.5V-53H1926V799L1750.5 789.5C1754.1 785.5 1759.67 766.833 1762 758C1766.5 695.5 1728 666 1687.5 663.5C1655.1 661.5 1630.67 675.333 1622.5 682.5C1614.9 683.3 1613.33 678.833 1613.5 676.5C1618.7 629.3 1611.33 618.164 1607 618.496C1395.5 592.501 1048.87 613.164 1041.5 618.496C1037.88 621.117 1036 623.163 1036 624.996C1032.8 716.996 1046 781.663 1053 802.496H1001.5C986.833 798.163 950.5 789.396 922.5 788.996C887.5 788.496 862.5 799.996 860.5 799.996C858.5 799.996 782.5 801.496 765 792.496C747.5 783.496 715 790.996 711 792.496C707 793.996 661.5 801.496 634.5 801.496C607.5 801.496 501.5 793.502 500 793.502C498.5 793.502 443 787.502 440.5 788.002C438 788.502 413 798.002 407 798.002C401 798.002 404 798.002 389 793.502C374 789.002 375 798.002 371.5 798.002C368 798.002 356.5 793.502 355 793.502H327H288.5C283.5 793.502 265.5 790.002 261 790.002C256.5 790.002 208.5 798.002 195 793.502C184.2 789.902 165.833 792.002 158 793.502L111.5 800.502C107 799.001 94.4 795.1 80 791.5C62 787 46 789 45 789Z" fill="black"/>
<path d="M1603.5 770C1604.3 784.8 1590.5 818.167 1583.5 833C1583.5 842.5 1589.5 844 1623 833C1656.5 822 1687 816.5 1722 781C1750 752.6 1733 720.833 1721 708.5C1690.5 682 1666.5 692.5 1652.5 700.5C1638.5 708.5 1630.5 727 1627 739.5C1623.5 752 1614.5 759 1613 759C1611.5 759 1603 763.5 1603.5 770Z" fill="black"/>
</g>
<defs>
<clipPath id="clip0_316_510">
<rect width="1920" height="1260" fill="white"/>
</clipPath>
</defs>
</svg>
